<svg width="19" height="19" viewBox="0 0 19 19" fill="none" xmlns="http://www.w3.org/2000/svg">
<path d="M19 9.5C19 14.7468 14.7468 19 9.5 19C4.25323 19 0 14.7468 0 9.5C0 4.25323 4.25323 0 9.5 0C14.7468 0 19 4.25323 19 9.5Z" fill="#808080"/>
<path d="M8.84767 15.2306H4.5469C4.40731 15.2306 4.28003 15.1627 4.1977 15.0444C4.1155 14.9261 4.09275 14.7782 4.13551 14.6387C4.6159 13.0727 6.08157 11.9791 7.69974 11.9791C8.45237 11.9791 9.17499 12.2167 9.78961 12.6662C10.0417 12.8506 10.3887 12.7858 10.5647 12.5214C10.7405 12.2571 10.6786 11.8933 10.4266 11.7089C10.14 11.4994 9.83527 11.3258 9.51752 11.1883C9.94384 10.7503 10.2261 10.1593 10.2829 9.50078C10.9668 8.81052 11.8596 8.43241 12.816 8.43241C13.5687 8.43241 14.2913 8.6701 14.9059 9.11948C15.158 9.30382 15.505 9.23908 15.6809 8.97465C15.8567 8.71037 15.7949 8.34655 15.5427 8.16221C15.2561 7.95264 14.9514 7.77908 14.6337 7.64155C15.1125 7.14976 15.4102 6.46498 15.4102 5.70846C15.4102 4.21502 14.2514 3 12.8269 3C11.4024 3 10.2435 4.21502 10.2435 5.70846C10.2435 6.46042 10.5376 7.14171 11.0113 7.63288C10.6826 7.77346 10.3694 7.95294 10.0766 8.1695C9.67654 7.21511 8.76693 6.54674 7.71062 6.54674C6.28611 6.54674 5.12717 7.76176 5.12717 9.25519C5.12717 10.0059 5.42027 10.6863 5.89269 11.1773C4.57647 11.726 3.51407 12.8525 3.07572 14.2812C2.92279 14.7799 3.00382 15.3086 3.29794 15.7318C3.5922 16.1551 4.04737 16.3978 4.5469 16.3978H8.84752C9.15498 16.3978 9.40416 16.1365 9.40416 15.8142C9.40416 15.492 9.15498 15.2306 8.84767 15.2306ZM12.8269 4.16715C13.6375 4.16715 14.2969 4.85847 14.2969 5.7083C14.2969 6.55813 13.6375 7.24961 12.8269 7.24961C12.0163 7.24961 11.3569 6.55813 11.3569 5.7083C11.3569 4.85847 12.0163 4.16715 12.8269 4.16715ZM7.71062 7.71389C8.52122 7.71389 9.18078 8.40521 9.18078 9.25519C9.18078 10.105 8.52122 10.7963 7.71062 10.7963C6.90001 10.7963 6.24059 10.105 6.24059 9.25519C6.24059 8.40521 6.90001 7.71389 7.71062 7.71389Z" fill="white"/>
<path d="M15.5484 11.4772C15.2985 11.2897 14.9507 11.35 14.7718 11.6122L12.337 15.1776C12.2854 15.2388 12.2216 15.2521 12.1872 15.2545C12.1513 15.2571 12.0817 15.2522 12.0225 15.1932L10.4451 13.6053C10.2233 13.382 9.87107 13.3895 9.65813 13.622C9.44518 13.8545 9.45228 14.224 9.67407 14.4472L11.2533 16.0368C11.5014 16.2844 11.8325 16.4223 12.1732 16.4223C12.2024 16.4223 12.2319 16.4212 12.2611 16.4191C12.6324 16.3932 12.9788 16.204 13.2118 15.8999C13.2183 15.8916 13.2245 15.8829 13.2305 15.8741L15.677 12.2915C15.856 12.0295 15.7984 11.6649 15.5484 11.4772Z" fill="white"/>
</svg>
